<?xml version="1.0" standalone="no"?>
<svg version="1.2" xmlns="http://www.w3.org/2000/svg" xmlns:xlink="http://www.w3.org/1999/xlink" overflow="visible" preserveAspectRatio="none" viewBox="0 0 316 80" width="316" height="80"><g transform="translate(0, 0)"><defs><path id="path-158618703887459" d="M0 0 C0 0 315.99999999999926 0 315.99999999999926 0 C315.99999999999926 0 315.99999999999926 54.964028776978466 315.99999999999926 54.964028776978466 C315.99999999999926 54.964028776978466 315.99999999999926 79.99999999999962 315.99999999999926 79.99999999999962 C315.99999999999926 79.99999999999962 0 79.99999999999962 0 79.99999999999962 C0 79.99999999999962 0 0 0 0 Z"/><linearGradient id="gradient-158618703888672" x1="0%" y1="50%" x2="100%" y2="50%"><stop offset="0%" stop-color="rgb(69,90,229)" stop-opacity="1"/><stop offset="100%" stop-color="rgb(110,143,229)" stop-opacity="1"/></linearGradient></defs><g transform="translate(0, 0)"><path d="M0 0 C0 0 315.99999999999926 0 315.99999999999926 0 C315.99999999999926 0 315.99999999999926 54.964028776978466 315.99999999999926 54.964028776978466 C315.99999999999926 54.964028776978466 315.99999999999926 79.99999999999962 315.99999999999926 79.99999999999962 C315.99999999999926 79.99999999999962 0 79.99999999999962 0 79.99999999999962 C0 79.99999999999962 0 0 0 0 Z" style="stroke: rgb(140, 140, 140); stroke-width: 0; stroke-linecap: butt; stroke-linejoin: miter; fill: url(&quot;#gradient-158618703888672&quot;); --darkreader-inline-stroke:#f1ebe0;" data-darkreader-inline-stroke=""/></g></g></svg>