<?xml version="1.0" standalone="no"?>
<svg version="1.2" xmlns="http://www.w3.org/2000/svg" xmlns:xlink="http://www.w3.org/1999/xlink" overflow="visible" preserveAspectRatio="none" viewBox="0 0 229 49" width="229" height="49"><g transform="translate(1, 1)"><defs><path id="path-158618703885540" d="M0 10.000000000000002 C0 4.477152502000001 4.477152502000001 0 10.000000000000002 0 C10.000000000000002 0 216.99999999999991 0 216.99999999999991 0 C222.52284749799992 0 226.99999999999991 4.477152502000001 226.99999999999991 10.000000000000002 C226.99999999999991 10.000000000000002 226.99999999999991 37 226.99999999999991 37 C226.99999999999991 42.522847498 222.52284749799992 47 216.99999999999991 47 C216.99999999999991 47 10.000000000000002 47 10.000000000000002 47 C4.477152502000001 47 0 42.522847498 0 37 C0 37 0 10.000000000000002 0 10.000000000000002 Z"/><filter height="146.80851063829786%" id="filter-158618703891386" width="107.04845814977975%" x="-3.524229074889868%" y="-4.25531914893617%"><feFlood flood-opacity="0" result="backgroundFix"/><feColorMatrix in="SourceAlpha" result="hardAlpha" type="matrix" values="0 0 0 0 0 0 0 0 0 0 0 0 0 0 0 0 0 0 127 0"/><feOffset dx="0" dy="6"/><feGaussianBlur stdDeviation="3.1666666666666665"/><feColorMatrix in="" result="" type="matrix" values="0 0 0 0 0  0 0 0 0 0  0 0 0 0 0  0 0 0 0.2 0"/><feBlend in2="backgroundFix" mode="normal" result="shadowOuter_1"/></filter></defs><g transform="translate(0, 0)"><use xmlns:xlink="http://www.w3.org/1999/xlink" xlink:href="#path-158618703885540" filter="url(#filter-158618703891386)"/><path d="M0 10.000000000000002 C0 4.477152502000001 4.477152502000001 0 10.000000000000002 0 C10.000000000000002 0 216.99999999999991 0 216.99999999999991 0 C222.52284749799992 0 226.99999999999991 4.477152502000001 226.99999999999991 10.000000000000002 C226.99999999999991 10.000000000000002 226.99999999999991 37 226.99999999999991 37 C226.99999999999991 42.522847498 222.52284749799992 47 216.99999999999991 47 C216.99999999999991 47 10.000000000000002 47 10.000000000000002 47 C4.477152502000001 47 0 42.522847498 0 37 C0 37 0 10.000000000000002 0 10.000000000000002 Z" style="stroke: rgb(254, 201, 75); stroke-width: 1; stroke-linecap: butt; stroke-linejoin: miter; fill: rgb(255, 244, 218); --darkreader-inline-stroke:#ffff7b; --darkreader-inline-fill:#ffffff;" data-darkreader-inline-stroke="" data-darkreader-inline-fill=""/></g></g></svg>