<?xml version="1.0" standalone="no"?>
<svg version="1.2" xmlns="http://www.w3.org/2000/svg" xmlns:xlink="http://www.w3.org/1999/xlink" overflow="visible" preserveAspectRatio="none" viewBox="0 0 166 30" width="166" height="30"><g transform="translate(1, 1)"><defs><path id="path-158618703885135" d="M0 10.000000000000002 C0 4.477152502000001 4.477152502000001 0 10.000000000000002 0 C10.000000000000002 0 153.99999999999991 0 153.99999999999991 0 C159.52284749799992 0 163.99999999999991 4.477152502000001 163.99999999999991 10.000000000000002 C163.99999999999991 10.000000000000002 163.99999999999991 18 163.99999999999991 18 C163.99999999999991 23.522847498 159.52284749799992 28 153.99999999999991 28 C153.99999999999991 28 10.000000000000002 28 10.000000000000002 28 C4.477152502000001 28 0 23.522847498 0 18 C0 18 0 10.000000000000002 0 10.000000000000002 Z"/><filter height="178.57142857142858%" id="filter-1586187038917176" width="109.75609756097562%" x="-4.878048780487805%" y="-7.142857142857142%"><feFlood flood-opacity="0" result="backgroundFix"/><feColorMatrix in="SourceAlpha" result="hardAlpha" type="matrix" values="0 0 0 0 0 0 0 0 0 0 0 0 0 0 0 0 0 0 127 0"/><feOffset dx="0" dy="6"/><feGaussianBlur stdDeviation="3.1666666666666665"/><feColorMatrix in="" result="" type="matrix" values="0 0 0 0 0  0 0 0 0 0  0 0 0 0 0  0 0 0 0.2 0"/><feBlend in2="backgroundFix" mode="normal" result="shadowOuter_1"/></filter></defs><g transform="translate(0, 0)"><use xmlns:xlink="http://www.w3.org/1999/xlink" xlink:href="#path-158618703885135" filter="url(#filter-1586187038917176)"/><path d="M0 10.000000000000002 C0 4.477152502000001 4.477152502000001 0 10.000000000000002 0 C10.000000000000002 0 153.99999999999991 0 153.99999999999991 0 C159.52284749799992 0 163.99999999999991 4.477152502000001 163.99999999999991 10.000000000000002 C163.99999999999991 10.000000000000002 163.99999999999991 18 163.99999999999991 18 C163.99999999999991 23.522847498 159.52284749799992 28 153.99999999999991 28 C153.99999999999991 28 10.000000000000002 28 10.000000000000002 28 C4.477152502000001 28 0 23.522847498 0 18 C0 18 0 10.000000000000002 0 10.000000000000002 Z" style="stroke: rgb(254, 201, 75); stroke-width: 1; stroke-linecap: butt; stroke-linejoin: miter; fill: rgb(255, 244, 218); --darkreader-inline-stroke:#ffff7b; --darkreader-inline-fill:#ffffff;" data-darkreader-inline-stroke="" data-darkreader-inline-fill=""/></g></g></svg>